<mxfile host="app.diagrams.net" agent="Mozilla/5.0 (Windows NT 10.0; Win64; x64) AppleWebKit/537.36 (KHTML, like Gecko) Chrome/140.0.0.0 Safari/537.36" version="28.2.3">
  <diagram name="Сторінка-1" id="v8a_toTa-uV2rgwLmd4Q">
    <mxGraphModel dx="1042" dy="1731" grid="1" gridSize="10" guides="1" tooltips="1" connect="1" arrows="1" fold="1" page="1" pageScale="1" pageWidth="827" pageHeight="1169" math="0" shadow="0">
      <root>
        <mxCell id="0" />
        <mxCell id="1" parent="0" />
        <mxCell id="VYtOwLHK-UtDq02r6OU--4" value="" style="edgeStyle=orthogonalEdgeStyle;rounded=0;orthogonalLoop=1;jettySize=auto;html=1;fontFamily=Times New Roman;fontSize=14;" edge="1" parent="1" source="VYtOwLHK-UtDq02r6OU--1" target="VYtOwLHK-UtDq02r6OU--3">
          <mxGeometry relative="1" as="geometry" />
        </mxCell>
        <mxCell id="VYtOwLHK-UtDq02r6OU--1" value="&lt;font&gt;Start&lt;/font&gt;" style="ellipse;whiteSpace=wrap;html=1;fontFamily=Times New Roman;fontSize=14;" vertex="1" parent="1">
          <mxGeometry x="80" y="-1120" width="160" height="80" as="geometry" />
        </mxCell>
        <mxCell id="VYtOwLHK-UtDq02r6OU--6" value="" style="edgeStyle=orthogonalEdgeStyle;rounded=0;orthogonalLoop=1;jettySize=auto;html=1;fontFamily=Times New Roman;fontSize=14;" edge="1" parent="1" source="VYtOwLHK-UtDq02r6OU--3" target="VYtOwLHK-UtDq02r6OU--5">
          <mxGeometry relative="1" as="geometry" />
        </mxCell>
        <mxCell id="VYtOwLHK-UtDq02r6OU--3" value="input n1, n2, n3" style="shape=parallelogram;perimeter=parallelogramPerimeter;whiteSpace=wrap;html=1;fixedSize=1;fontFamily=Times New Roman;fontSize=14;" vertex="1" parent="1">
          <mxGeometry x="80" y="-1010" width="160" height="80" as="geometry" />
        </mxCell>
        <mxCell id="VYtOwLHK-UtDq02r6OU--10" value="" style="edgeStyle=orthogonalEdgeStyle;rounded=0;orthogonalLoop=1;jettySize=auto;html=1;fontFamily=Times New Roman;fontSize=14;" edge="1" parent="1" source="VYtOwLHK-UtDq02r6OU--5" target="VYtOwLHK-UtDq02r6OU--9">
          <mxGeometry relative="1" as="geometry" />
        </mxCell>
        <mxCell id="VYtOwLHK-UtDq02r6OU--5" value="&lt;font style=&quot;color: light-dark(rgb(206, 103, 0), rgb(255, 255, 255));&quot;&gt;&lt;span style=&quot;white-space: pre;&quot;&gt;print(n % 10)&lt;/span&gt;&lt;/font&gt;" style="whiteSpace=wrap;html=1;fontFamily=Times New Roman;fontSize=14;" vertex="1" parent="1">
          <mxGeometry x="80" y="-900" width="160" height="70" as="geometry" />
        </mxCell>
        <mxCell id="VYtOwLHK-UtDq02r6OU--9" value="End" style="ellipse;whiteSpace=wrap;html=1;fontFamily=Times New Roman;fontSize=14;" vertex="1" parent="1">
          <mxGeometry x="80" y="-810" width="160" height="80" as="geometry" />
        </mxCell>
        <mxCell id="VYtOwLHK-UtDq02r6OU--23" value="" style="edgeStyle=orthogonalEdgeStyle;rounded=0;orthogonalLoop=1;jettySize=auto;html=1;" edge="1" parent="1" source="VYtOwLHK-UtDq02r6OU--11" target="VYtOwLHK-UtDq02r6OU--12">
          <mxGeometry relative="1" as="geometry" />
        </mxCell>
        <mxCell id="VYtOwLHK-UtDq02r6OU--11" value="&lt;font&gt;Start&lt;/font&gt;" style="ellipse;whiteSpace=wrap;html=1;fontFamily=Times New Roman;fontSize=14;" vertex="1" parent="1">
          <mxGeometry x="360" y="-1120" width="160" height="80" as="geometry" />
        </mxCell>
        <mxCell id="VYtOwLHK-UtDq02r6OU--16" value="" style="edgeStyle=orthogonalEdgeStyle;rounded=0;orthogonalLoop=1;jettySize=auto;html=1;" edge="1" parent="1" source="VYtOwLHK-UtDq02r6OU--12" target="VYtOwLHK-UtDq02r6OU--15">
          <mxGeometry relative="1" as="geometry" />
        </mxCell>
        <mxCell id="VYtOwLHK-UtDq02r6OU--12" value="input t, h, m" style="shape=parallelogram;perimeter=parallelogramPerimeter;whiteSpace=wrap;html=1;fixedSize=1;fontFamily=Times New Roman;fontSize=14;" vertex="1" parent="1">
          <mxGeometry x="360" y="-1010" width="160" height="80" as="geometry" />
        </mxCell>
        <mxCell id="VYtOwLHK-UtDq02r6OU--18" value="" style="edgeStyle=orthogonalEdgeStyle;rounded=0;orthogonalLoop=1;jettySize=auto;html=1;" edge="1" parent="1" source="VYtOwLHK-UtDq02r6OU--15" target="VYtOwLHK-UtDq02r6OU--17">
          <mxGeometry relative="1" as="geometry" />
        </mxCell>
        <mxCell id="VYtOwLHK-UtDq02r6OU--15" value="start_minutes = h * 60 + m&amp;nbsp;&lt;div&gt;&lt;span style=&quot;background-color: transparent; color: light-dark(rgb(0, 0, 0), rgb(255, 255, 255));&quot;&gt;wake_minutes =&lt;/span&gt;&lt;/div&gt;&lt;div&gt;&lt;span style=&quot;background-color: transparent; color: light-dark(rgb(0, 0, 0), rgb(255, 255, 255));&quot;&gt;start_minutes + t&lt;/span&gt;&lt;/div&gt;" style="whiteSpace=wrap;html=1;fontFamily=Times New Roman;fontSize=14;" vertex="1" parent="1">
          <mxGeometry x="360" y="-900" width="160" height="100" as="geometry" />
        </mxCell>
        <mxCell id="VYtOwLHK-UtDq02r6OU--21" value="" style="edgeStyle=orthogonalEdgeStyle;rounded=0;orthogonalLoop=1;jettySize=auto;html=1;" edge="1" parent="1" source="VYtOwLHK-UtDq02r6OU--17" target="VYtOwLHK-UtDq02r6OU--19">
          <mxGeometry relative="1" as="geometry" />
        </mxCell>
        <mxCell id="VYtOwLHK-UtDq02r6OU--17" value="wake_h = wake_minutes // 60&amp;nbsp;&lt;div&gt;wake_m = wake_minutes % 60&lt;/div&gt;" style="whiteSpace=wrap;html=1;fontFamily=Times New Roman;fontSize=14;" vertex="1" parent="1">
          <mxGeometry x="360" y="-770" width="160" height="100" as="geometry" />
        </mxCell>
        <mxCell id="VYtOwLHK-UtDq02r6OU--22" value="" style="edgeStyle=orthogonalEdgeStyle;rounded=0;orthogonalLoop=1;jettySize=auto;html=1;" edge="1" parent="1" source="VYtOwLHK-UtDq02r6OU--19" target="VYtOwLHK-UtDq02r6OU--20">
          <mxGeometry relative="1" as="geometry" />
        </mxCell>
        <mxCell id="VYtOwLHK-UtDq02r6OU--19" value="print(wake_h, wake_m)" style="shape=parallelogram;perimeter=parallelogramPerimeter;whiteSpace=wrap;html=1;fixedSize=1;fontFamily=Times New Roman;fontSize=14;" vertex="1" parent="1">
          <mxGeometry x="360" y="-640" width="160" height="80" as="geometry" />
        </mxCell>
        <mxCell id="VYtOwLHK-UtDq02r6OU--20" value="End" style="ellipse;whiteSpace=wrap;html=1;fontFamily=Times New Roman;fontSize=14;" vertex="1" parent="1">
          <mxGeometry x="360" y="-530" width="160" height="80" as="geometry" />
        </mxCell>
      </root>
    </mxGraphModel>
  </diagram>
</mxfile>
